# xmcd CD database file
#
# Track frame offsets:
#	150
#	10811
#	22022
#	34505
#	47747
#	58586
#	71659
#	81422
#	97301
#	108029
#	116457
#	130938
#	142143
#
# Disc length: 2088 seconds
#
# Revision: 1
# Processed by: cddbd v1.5.1PL0 Copyright (c) Steve Scherf et al.
# Submitted via: CDex 1.51
#
DISCID=b408260d
DTITLE=Johnny Otis (Featuring Shuggie Otis) - Willie and The Hand Jive
DYEAR=2004
DGENRE=Blues
TTITLE0=Country Girl
TTITLE1=Willie and The Hand Jive
TTITLE2=Signifyin' Monkey
TTITLE3=Fanny Mae
TTITLE4=Baby I Got News For You
TTITLE5=Jaws
TTITLE6=Good To The Last Drop
TTITLE7=Barrel House Blues
TTITLE8=Stagger Lee
TTITLE9=Don't Start Me To Talkin'
TTITLE10=Bad Luck Shadow
TTITLE11=Please Don't Leave Me
TTITLE12=Harlem Nocturne
EXTD=YEAR: 2004
EXTT0=
EXTT1=
EXTT2=
EXTT3=
EXTT4=
EXTT5=
EXTT6=
EXTT7=
EXTT8=
EXTT9=
EXTT10=
EXTT11=
EXTT12=
PLAYORDER=
